<svg width="24" height="24" viewBox="0 0 24 24" fill="none" xmlns="http://www.w3.org/2000/svg">
<g clip-path="url(#clip0_5500_172593)">
<path d="M11.34 12.6877V15.3727H10.44V8.73228H12.78C13.35 8.73228 13.89 8.93438 14.31 9.30971C14.73 9.65617 14.94 10.1759 14.94 10.7244C14.94 11.273 14.73 11.7638 14.31 12.1391C13.89 12.5144 13.38 12.7165 12.78 12.7165L11.34 12.6877ZM11.34 9.54068V11.8504H12.84C13.17 11.8504 13.5 11.7349 13.71 11.5039C14.19 11.0709 14.19 10.3491 13.74 9.91601L13.71 9.88714C13.47 9.65617 13.17 9.51181 12.84 9.54068H11.34Z" fill="#5F6368"/>
<path d="M17.01 10.6955C17.67 10.6955 18.18 10.8688 18.57 11.2152C18.96 11.5617 19.14 12.0236 19.14 12.601V15.3727H18.3V14.7375H18.27C17.91 15.2572 17.4 15.5171 16.8 15.5171C16.29 15.5171 15.84 15.3727 15.48 15.084C15.15 14.7953 14.94 14.3911 14.94 13.958C14.94 13.4961 15.12 13.1207 15.48 12.832C15.84 12.5433 16.35 12.4278 16.95 12.4278C17.49 12.4278 17.91 12.5144 18.24 12.7165V12.5144C18.24 12.2257 18.12 11.937 17.88 11.7638C17.64 11.5617 17.34 11.4462 17.01 11.4462C16.5 11.4462 16.11 11.6483 15.84 12.0525L15.06 11.5906C15.54 10.9843 16.17 10.6955 17.01 10.6955ZM15.87 13.9869C15.87 14.2178 15.99 14.4199 16.17 14.5354C16.38 14.6798 16.62 14.7664 16.86 14.7664C17.22 14.7664 17.58 14.622 17.85 14.3622C18.15 14.1024 18.3 13.7848 18.3 13.4383C18.03 13.2362 17.64 13.1207 17.13 13.1207C16.77 13.1207 16.47 13.2073 16.23 13.3806C15.99 13.5249 15.87 13.727 15.87 13.9869Z" fill="#5F6368"/>
<path d="M24 10.8399L21.03 17.3937H20.13L21.24 15.1129L19.29 10.8688H20.25L21.66 14.1312H21.69L23.07 10.8688H24V10.8399Z" fill="#5F6368"/>
<path d="M7.77 12.1102C7.77 11.8504 7.74 11.5906 7.71 11.3307H3.96V12.8031H6.09C6 13.2651 5.73 13.6982 5.31 13.958V14.9108H6.6C7.35 14.2467 7.77 13.2651 7.77 12.1102Z" fill="#4285F4"/>
<path d="M3.96 15.8346C5.04 15.8346 5.94 15.4882 6.6 14.9108L5.31 13.958C4.95 14.189 4.5 14.3333 3.96 14.3333C2.94 14.3333 2.04 13.6693 1.74 12.7454H0.42V13.727C1.11 15.0262 2.46 15.8346 3.96 15.8346Z" fill="#34A853"/>
<path d="M1.74 12.7454C1.56 12.2835 1.56 11.7638 1.74 11.273V10.2913H0.42C-0.15 11.3596 -0.15 12.6299 0.42 13.727L1.74 12.7454Z" fill="#FBBC04"/>
<path d="M3.96 9.71391C4.53 9.71391 5.07 9.91601 5.49 10.2913L6.63 9.19423C5.91 8.55905 4.95 8.18373 3.99 8.2126C2.49 8.2126 1.11 9.021 0.45 10.3202L1.77 11.3018C2.04 10.378 2.94 9.71391 3.96 9.71391Z" fill="#EA4335"/>
</g>
<defs>
<clipPath id="clip0_5500_172593">
<rect width="24" height="24" fill="white"/>
</clipPath>
</defs>
</svg>
